<svg version="1.1" id="Calque_1" xmlns="http://www.w3.org/2000/svg" xmlns:xlink="http://www.w3.org/1999/xlink" x="0" y="0" viewBox="0 0 1920.2 1075.6" xml:space="preserve"><style/><g id="Group_112" transform="translate(.089 .042)"><linearGradient id="Path_195_00000033367982275563643190000012158297257640266648_" gradientUnits="userSpaceOnUse" x1="662.066" y1="957.956" x2="662.066" y2="956.956" gradientTransform="matrix(1920.1833 0 0 -1075.636 -1270328.625 1030411.563)"><stop offset="0" stop-color="#bea200"/><stop offset="1" stop-color="#f1d035"/></linearGradient><path id="Path_195" d="M-.1 607.4s100.4 239.9 401.2 191.5 442.1 9.6 537.6 114.9 352.1 94.3 581 52.4 363.2 41.8 400.4 109.4L1919.7 0H0l-.1 607.4z" opacity=".11" fill="url(#Path_195_00000033367982275563643190000012158297257640266648_)"/><linearGradient id="Path_194_00000005231489212926577550000010400375939913413760_" gradientUnits="userSpaceOnUse" x1="662.066" y1="957.956" x2="662.066" y2="956.956" gradientTransform="matrix(1920.1058 0 0 -1075.6212 -1270277.25 1030397.438)"><stop offset="0" stop-color="#f1d035"/><stop offset="1" stop-color="#bea200"/></linearGradient><path id="Path_194" d="M0 607.5s95.3 204.2 401.2 161.1c305.9-43 419.7-32.1 544.2 96.9s344 107.5 572.9 67.1 360.2 68.2 401.8 143L1920 0H0v607.5z" fill="url(#Path_194_00000005231489212926577550000010400375939913413760_)"/><defs><path id="SVGID_1_" d="M0 607.5s95.3 204.2 401.2 161.1c305.9-43 419.7-32.1 544.2 96.9s344 107.5 572.9 67.1 360.2 68.2 401.8 143L1920 0H0v607.5z"/></defs><clipPath id="SVGID_00000017475357313051024120000017751958677844582046_"><use xlink:href="#SVGID_1_" overflow="visible"/></clipPath><g id="Mask_Group_6" clip-path="url(#SVGID_00000017475357313051024120000017751958677844582046_)"><path id="Path_4" d="M25.6 687.7s174.2-392 817.4-255 869.4 77.5 1056.2-464" opacity=".14" fill="none" stroke="#361cc1" stroke-width="128"/></g></g></svg>